<svg width="300" height="300" viewBox="0 0 300 300" fill="none" xmlns="http://www.w3.org/2000/svg">
<rect width="300" height="300" rx="60" fill="#F1F1F1"/>
<path d="M205.147 54.2663C205.522 53.1869 205.565 52.0199 205.272 50.9154C204.979 49.8109 204.362 48.8194 203.501 48.0682C191.443 37.6664 176.343 31.4465 160.457 30.3383C135.488 28.5257 120.018 35.2135 112.205 40.1824C111.427 40.6833 110.78 41.3637 110.319 42.1666C109.858 42.9695 109.597 43.8713 109.557 44.7961C109.517 45.721 109.7 46.6419 110.09 47.4814C110.48 48.3209 111.066 49.0544 111.799 49.6203L175.437 99.0806C176.738 100.089 178.26 100.773 179.878 101.074C181.496 101.376 183.163 101.286 184.739 100.813C186.316 100.34 187.756 99.4979 188.941 98.3558C190.126 97.2137 191.022 95.805 191.552 94.2471L205.147 54.2663ZM48.2861 201.074C47.0234 201.93 46.0608 203.16 45.5339 204.592C45.0069 206.023 44.9421 207.584 45.3485 209.054C47.7757 217.752 54.9843 235.846 75.4539 252.305C95.913 268.764 120.122 270.546 130.466 270.296C131.978 270.267 133.442 269.762 134.65 268.853C135.858 267.944 136.749 266.677 137.196 265.233L177.979 136.134C180.927 126.811 170.479 118.998 162.374 124.446L48.2861 201.074ZM78.0998 64.8397C77.1115 64.4517 76.0503 64.2843 74.9905 64.349C73.9307 64.4138 72.8979 64.7093 71.9641 65.2147C64.4222 69.319 45.0881 81.9862 35.1085 107.987C27.4207 128.03 30.1291 150.197 32.2438 161.041C32.9418 164.583 36.6815 166.625 40.0358 165.312L162.426 117.529C171.166 114.123 171.197 101.768 162.478 98.3098L78.0998 64.8397ZM259.649 157.354C263.191 159.75 268.024 157.635 268.639 153.395C270.264 142.197 271.66 122.696 265.18 107.987C256.534 88.3823 241.867 76.2985 234.898 71.3816C233.827 70.6355 232.537 70.2701 231.234 70.3437C229.931 70.4174 228.69 70.9259 227.71 71.7879L196.823 99.1848C195.648 100.229 194.726 101.528 194.128 102.982C193.53 104.437 193.272 106.008 193.374 107.578C193.475 109.147 193.933 110.672 194.714 112.037C195.494 113.403 196.575 114.572 197.875 115.456L259.649 157.354ZM173.343 261.91C173.031 265.556 176.125 268.577 179.76 268.181C191.458 266.931 215.512 262.285 233.512 245.076C246.021 233.006 254.686 217.51 258.42 200.533C258.64 199.477 258.623 198.386 258.371 197.337C258.119 196.289 257.637 195.31 256.961 194.47L202.959 127.842C197.105 120.623 185.448 124.186 184.635 133.436L173.343 261.91Z" fill="#171A1F"/>
</svg>
