<svg width="70" height="69" viewBox="0 0 70 69" fill="none" xmlns="http://www.w3.org/2000/svg">
<path d="M28.4459 13.6526C22.2166 2.06953 10.1019 51.2656 18.6497 56.354C26.6879 61.1355 33.6688 47.2 36.2802 42.3929C36.3567 44.1956 37.1974 47.4046 38.3439 48.8493C42.9044 54.6025 53.5286 39.1072 54.8662 31.4491C55.7834 36.4991 50.8025 41.0761 55.9872 45.6275L61.8981 13.1029C71.8853 23.7015 72.0509 39.7081 65.5032 51.2912C58.0637 64.4596 44.293 69.4201 28.9681 67.6942C14.4076 66.0449 3.707 54.3979 0.853495 41.7153C-2.59873 26.2968 4.66241 12.4892 16.3312 5.32967C29.3758 -2.67365 45.1465 -1.4463 57.0446 7.55423C52.5732 20.7226 51.0828 34.3385 40.8917 44.9371C39.3248 37.2918 50.7516 10.1368 44.0637 9.81715C35.8216 9.42082 35.2739 40.0405 23.9236 49.2712C21.8599 39.3629 31.5541 19.4058 28.4586 13.6526H28.4459Z" fill="#F1A10E"/>
</svg>
